<svg xmlns="http://www.w3.org/2000/svg" viewBox="7.1 413.2 753.8 196.3">
    <path fill="white" d="M82.5 452.3v-10s2.1-15.6-23.5-15.6c-26.3 0-24.9 15.6-24.9 15.6v50.5S32.7 507 59 507c22.8 0 23.5-6.4 23.5-6.4v-22.8H58.3v-13.5h50.5v36.3s-10 19.9-50.5 19.9c-47.6 0-51.2-28.4-51.2-28.4v-50.5s2.1-28.4 51.2-28.4c52.6 0 50.5 28.4 50.5 28.4v10H82.5v.7zm506.3 14.2s2.1-20.6-39.1-20.6c-40.5 0-39.1 19.9-39.1 19.9v34.8s-2.1 19.9 39.1 19.9c40.5 0 39.1-19.9 39.1-19.9v-5.7h-21.3v5.7s0 8.5-17.8 8.5-17.1-8.5-17.8-8.5v-12.8h56.2v-21.3h.7zm-39.1-9.3c17.8 0 17.8 8.5 17.8 8.5v7.8h-34.8v-7.8c-.1.8-.1-8.5 17-8.5zm125.1 18.5v-9.2s1.4-20.6-39.1-20.6-39.1 19.9-39.1 19.9v34.8s-1.4 19.9 39.1 19.9 39.1-19.9 39.1-19.9v-8.5h-21.3v8.5s0 8.5-17.8 8.5-17.1-8.5-17.8-8.5v-34.8s0-8.5 18.5-8.5c17.1 0 17.1 8.5 17.1 8.5v9.2l21.3.7zm-219.7-15.6h7.1v42c0 18.5 25.6 20.6 44.1 18.5v-10.7c-21.3 2.8-22.8-7.8-22.8-7.8v-42H507v-11.4h-23.5v-16.4h-21.3v16.4h-7.1v11.4zm-90.3 6.4s2.1-20.6-39.1-20.6c-40.5 0-39.1 19.9-39.1 19.9v34.8s-2.1 19.9 39.1 19.9 39.1-19.9 39.1-19.9v-5.7h-21.3v5.7s0 8.5-17.8 8.5-17.1-8.5-17.8-8.5v-12.8h56.2v-21.3h.7zm-39.1-9.3c17.8 0 17.8 8.5 17.8 8.5v7.8h-34.8v-7.8c-.1.8-.1-8.5 17-8.5zm-130.9 9.3s1.4-20.6-39.1-20.6-39.1 19.9-39.1 19.9v34.8s-2.1 19.9 39.1 19.9 39.1-19.9 39.1-19.9v-5.7h-21.3v5.7s0 8.5-17.8 8.5-17.1-8.5-17.8-8.5v-12.8h56.2v-21.3h.7zm-39.1-9.3c17.8 0 17.8 8.5 17.8 8.5v7.8h-34.8v-7.8c-.7.8-.7-8.5 17-8.5zm527 61.2H704v-52.6s0-8.5 17.8-8.5 17.8 8.5 17.8 8.5v53.3h21.3v-55.5s-.7-17.8-39.1-17.8c-7.1 0-12.8.7-17.8 1.4V416h-21.3v102.4zm-442.3-74c-12.8 0-22 2.1-27.7 5h-11.4v68.3h21.3v-52.6s0-8.5 17.8-8.5 17.8 8.5 17.8 8.5v53.3h21.3v-55.5s-.7-18.5-39.1-18.5zm170.6 0c-12.8 0-22 2.1-27.7 5h-11.4v68.3h21.3v-52.6s0-8.5 17.8-8.5 17.8 8.5 17.8 8.5v53.3h21.3v-55.5s-.7-18.5-39.1-18.5zm-371.2 111L42 566c1.4 7.1 2.1 14.9 3.6 22 .7 5 1.4 5 5 5.7v1.4H34.8l.7-1.4h2.1c2.1 0 2.1-.7 2.1-3.6l-1.4-8.5H27c-.7 1.4-2.8 5-4.3 7.8s-1.4 3.6.7 4.3h2.1l-.7 1.4H12.1l.7-1.4c3.6-.7 4.3-.7 7.8-6.4L38.4 556l1.4-.6zm-12.1 23.4h10l-2.1-13.5-7.9 13.5zm61.2-22.7l7.8 29.2 17.8-29.2h11.4l-.7 1.4c-5 .7-5 .7-6.4 7.1l-3.6 21.3c-.7 6.4-.7 7.1 4.3 7.1l-.7 1.4h-16.4V593c4.3-.7 5-.7 6.4-7.1l4.3-23.5-19.2 31.3h-1.4l-7.1-30.6-3.6 15.6c-1.4 5.7-2.1 9.2-2.1 10.7 0 2.1.7 2.8 5 2.8v1.4H70.4v-1.4c2.8 0 4.3-.7 5.7-2.8.7-2.1 1.4-5 2.8-11.4l3.6-13.5c2.1-7.1 1.4-7.8-3.6-8.5v-1.4h10v1.5zm56.2 33.4c-5.7 5.7-11.4 7.1-13.5 7.1-2.8 0-7.1-1.4-7.1-8.5 0-5.7 2.8-12.1 7.1-14.9 2.8-2.1 6.4-3.6 9.2-3.6 3.6 0 5.7 2.1 5.7 5 0 5.7-10 9.2-15.6 11.4v1.4c0 2.8.7 6.4 4.3 6.4 2.1 0 5.7-1.4 8.5-4.3h1.4zm-8.6-17.8c-1.4.7-4.3 3.6-5 10.7 7.1-2.1 10-5 10-8.5 0-2.1-1.4-2.8-2.8-2.8-.7-.1-1.5.6-2.2.6zm14.3 2.9c3.6-3.6 7.8-6.4 10-6.4s2.1 2.1 1.4 5.7l-.7 4.3c4.3-5 7.8-7.8 10.7-9.2 1.4-.7 2.1-.7 3.6-.7s3.6.7 2.1 7.1l-.7 2.8c4.3-5 8.5-7.8 10.7-9.2 1.4-.7 2.1-.7 2.8-.7 1.4 0 3.6.7 2.1 7.8-.7 2.8-2.1 7.8-2.8 12.8 0 1.4-.7 2.1 0 2.1s2.8-1.4 4.3-2.8l.7 1.4c-3.6 2.8-8.5 5.7-10 5.7-2.1 0-2.8-1.4-1.4-5L187 576c.7-2.8.7-4.3-.7-4.3-2.1 0-7.8 5.7-10.7 10-.7 2.1-2.1 7.8-2.1 11.4l-6.4 1.4c.7-3.6 1.4-6.4 2.1-10l1.4-8.5c.7-1.4.7-3.6-.7-3.6-2.1 0-7.8 5.7-10.7 10-.7 1.4-2.1 7.8-2.1 11.4l-6.4 1.4c.7-3.6 1.4-6.4 2.1-10l2.1-10c.7-2.1.7-2.8 0-2.8s-2.8 1.4-4.3 2.8v-.6h.2zm49.7-19.2c5-.7 10.7-2.8 10.7-2.8.7 0 .7.7.7 2.8l-4.3 20.6c5-5.7 10-7.8 12.8-7.8 2.1 0 4.3 2.1 4.3 5.7 0 7.1-3.6 14.9-9.2 18.5-3.6 2.1-7.1 3.6-9.2 3.6-2.8 0-5.7-1.4-6.4-3.6-.7-1.4 0-2.8.7-6.4l5.7-27c.7-2.1.7-2.8-1.4-2.8H202v-.7h-1.5zm8.6 22.7c-2.1 2.8-2.1 3.6-3.6 8.5-.7 5.7.7 7.1 2.8 7.1 1.4 0 2.1 0 2.8-.7 2.8-1.4 6.4-9.2 6.4-16.4 0-2.8-.7-4.3-2.1-4.3-1.4.1-4.2 3-6.3 5.8zm39.8 11.4c-5.7 5.7-11.4 7.1-13.5 7.1-2.8 0-7.1-1.4-7.1-8.5 0-5.7 2.8-12.1 7.1-14.9 2.8-2.1 6.4-3.6 9.2-3.6 3.6 0 5.7 2.1 5.7 5 0 5.7-10 9.2-15.6 11.4v1.4c0 2.8.7 6.4 4.3 6.4 2.1 0 5.7-1.4 8.5-4.3h1.4zm-8.5-17.8c-1.4.7-4.3 3.6-5 10.7 7.1-2.1 10-5 10-8.5 0-2.1-1.4-2.8-2.8-2.8-.8-.1-1.5.6-2.2.6zm13.5 2.9c3.6-3.6 7.8-6.4 10-6.4 1.4 0 1.4 2.1 1.4 4.3l-1.4 4.3c2.8-5 6.4-8.5 7.8-8.5 1.4 0 2.8.7 3.6 1.4.7.7 0 2.1 0 2.8-.7 1.4-1.4 1.4-2.1 2.1-.7.7-1.4.7-2.1 0-.7-.7-1.4-.7-2.1-.7-.7 0-1.4 0-2.8 2.1s-2.1 3.6-3.6 6.4c-1.4 5.7-2.1 10-2.1 12.1l-6.4 1.4c.7-3.6 1.4-6.4 2.1-10l2.1-10c.7-2.1.7-3.6 0-3.6s-2.8 1.4-4.3 2.8v-.5h-.1zm59 2.8c0 5.7-2.1 11.4-6.4 14.9-2.8 2.1-6.4 4.3-10 4.3-6.4 0-8.5-5-8.5-9.2 0-7.8 4.3-13.5 8.5-15.6 2.8-1.4 5.7-2.1 7.8-2.1 5.7-.8 8.6 2.7 8.6 7.7zm-12.1-5.7c-2.1.7-5.7 5.7-5.7 14.2 0 4.3 1.4 7.8 4.3 7.8h1.4c2.1-.7 5.7-7.8 5.7-15.6 0-4.3-1.4-6.4-4.3-6.4-.7-.7-1.4-.7-1.4 0zm34.8-1.4l-1.4 1.4-6.4.7c-.7 5-1.4 9.2-2.1 13.5-2.1 11.4-5 17.8-7.8 19.9-2.8 2.8-5.7 3.6-7.1 3.6-1.4 0-2.8-.7-2.8-2.1 0-.7.7-2.1 1.4-2.8.7-.7 1.4-.7 2.1-.7.7 0 2.1 1.4 2.8 1.4.7 0 .7 0 1.4-.7s2.1-5 3.6-15.6c1.4-7.1 1.4-12.1 2.8-17.1h-5v-.8l1.4-2.1h3.6c.7-5 2.1-9.2 5-12.1 2.1-2.8 6.4-5 10-5 2.1 0 3.6 1.4 3.6 2.8s-.7 2.1-1.4 2.8c-.7.7-1.4.7-2.1 0-1.4-1.4-2.8-2.1-4.3-2.1s-2.8 2.8-5 14.2h7.8l-.1.8zm31.3-8.5l-2.1 7.8h7.1l-2.1 2.1h-5.7l-3.6 15.6c-.7 2.1 0 3.6.7 3.6 1.4 0 3.6-2.1 5.7-3.6l.7 1.4c-2.1 2.1-7.8 7.1-10.7 7.1-2.1 0-2.8-2.1-2.1-7.8l3.6-15.6h-4.3l-.7-.7 2.1-1.4h3.6l1.4-4.3 5.7-4.3h.7zm5 34.1c.7-2.8 1.4-5.7 2.1-9.2l5.7-27.7c.7-2.1.7-2.8-1.4-2.8h-2.8v-1.4c5-.7 10.7-2.8 10.7-2.8.7 0 .7.7.7 2.8l-5 22.8c4.3-5 7.8-7.8 10.7-8.5 1.4-.7 2.1-.7 3.6-.7 1.4 0 3.6.7 2.1 6.4-.7 4.3-2.1 9.2-2.8 14.2-.7 1.4-.7 2.1 0 2.1s2.8-1.4 4.3-2.8l.7 1.4c-3.6 2.8-8.5 5.7-10 5.7s-2.1-1.4-1.4-5l3.6-14.2c.7-2.8.7-4.3-.7-4.3-2.1 0-7.8 5.7-10.7 10 0 1.4-2.1 8.5-2.1 11.4l-7.3 2.6zm52.6-6.4c-5.7 5.7-11.4 7.1-13.5 7.1-2.8 0-7.1-1.4-7.1-8.5 0-5.7 2.8-12.1 7.1-14.9 2.8-2.1 6.4-3.6 9.2-3.6 3.6 0 5.7 2.1 5.7 5 0 5.7-10 9.2-15.6 11.4v1.4c0 2.8.7 6.4 4.3 6.4 2.1 0 5.7-1.4 8.5-4.3h1.4zm-8.5-17.8c-1.4.7-4.3 3.6-5 10.7 7.1-2.1 10-5 10-8.5 0-2.1-1.4-2.8-2.8-2.8-.8-.1-1.5.6-2.2.6zm48.4-15.6c6.4 0 12.8 1.4 12.8 9.2 0 5.7-5 9.2-10 10.7.7 1.4 2.1 5.7 3.6 7.8 1.4 3.6 2.8 5.7 3.6 6.4 1.4 1.4 2.1 2.1 4.3 2.8l-.7 1.4h-2.1c-6.4 0-8.5-2.1-10-5.7-1.4-2.8-2.8-6.4-4.3-9.2-.7-2.1-1.4-2.1-2.8-2.1h-2.1l-1.4 9.2c-1.4 6.4-.7 7.1 3.6 7.1v1.4h-16.4v-1.4c4.3-.7 5-.7 6.4-7.1l4.3-21.3c1.4-6.4.7-7.1-3.6-7.1v-1.4h14.9v-.7zm-7.2 20.6h2.1c2.1 0 4.3-.7 6.4-1.4 3.6-2.1 5-5.7 5-9.2 0-4.3-2.8-7.1-7.1-7.1h-2.8c-.7 0-.7.7-.7 1.4l-2.9 16.3zm49.8.7c0 5.7-2.1 11.4-6.4 14.9-2.8 2.1-6.4 4.3-10 4.3-6.4 0-8.5-5-8.5-9.2 0-7.8 4.3-13.5 8.5-15.6 2.8-1.4 5.7-2.1 7.8-2.1 5.8-.8 8.6 2.7 8.6 7.7zm-12.1-5.7c-2.1.7-5.7 5.7-5.7 14.2 0 4.3 1.4 7.8 4.3 7.8h1.4c2.1-.7 5.7-7.8 5.7-15.6 0-4.3-1.4-6.4-4.3-6.4-.7-.7-.7-.7-1.4 0zm35.6 17.8c-4.3 4.3-9.2 6.4-12.1 6.4-4.3 0-7.1-2.8-7.1-8.5 0-5 2.1-10.7 6.4-14.2 2.8-2.1 6.4-4.3 10.7-4.3 2.8 0 5 1.4 5 2.8 0 .7-.7 2.1-1.4 2.8s-2.1.7-2.8 0c-1.4-2.1-2.8-2.8-4.3-2.8-1.4 0-2.8.7-4.3 3.6-1.4 2.8-2.8 7.1-2.8 11.4 0 3.6 1.4 5.7 3.6 5.7 3.6 0 6.4-2.1 7.8-3.6l1.3.7zm4.3 6.4c.7-2.8 1.4-5.7 2.1-9.2l5.7-27.7c.7-2.1.7-2.8-1.4-2.8h-2.8v-1.4c5-.7 10.7-2.8 10.7-2.8.7 0 .7.7.7 2.8l-5 22.8c4.3-5 7.8-7.8 10.7-8.5 1.4-.7 2.1-.7 3.6-.7 1.4 0 3.6.7 2.1 6.4-.7 4.3-2.1 9.2-2.8 14.2 0 1.4-.7 2.1 0 2.1s2.8-1.4 4.3-2.8l.7 1.4c-3.6 2.8-8.5 5.7-10 5.7-1.4 0-2.1-1.4-1.4-5l3.6-14.2c.7-2.8.7-4.3-.7-4.3-2.1 0-7.8 5.7-10.7 10-.7 1.4-2.1 8.5-2.1 11.4l-7.3 2.6zm52.6-6.4c-5.7 5.7-11.4 7.1-13.5 7.1-2.8 0-7.1-1.4-7.1-8.5 0-5.7 2.8-12.1 7.1-14.9 2.1-2.8 5.7-4.3 9.2-4.3 3.6 0 5.7 2.1 5.7 5 0 5.7-10 9.2-15.6 11.4v1.4c0 2.8.7 6.4 4.3 6.4 2.1 0 5.7-1.4 8.5-4.3l1.4.7zm-8.6-17.8c-1.4.7-4.3 3.6-5 10.7 7.1-2.1 10-5 10-8.5 0-2.1-1.4-2.8-2.8-2.8-1.4-.1-2.2.6-2.2.6zm63.3-4.9c0-7.1-5-9.2-9.2-9.2-10.7 0-17.8 10-17.8 21.3 0 8.5 4.3 14.9 12.1 14.9 2.8 0 5-.7 5.7-3.6l1.4-6.4c.7-4.3.7-4.3-5.7-5v-2.1H645v2.1c-2.8 0-3.6 0-4.3 5l-.7 5.7c0 1.4-.7 2.8-.7 4.3-3.6.7-8.5 2.1-12.8 2.1-10.7 0-18.5-5.7-18.5-17.1 0-14.2 12.1-23.5 26.3-23.5 5 0 8.5.7 10.7 1.4 0 2.1-.7 5-.7 9.2l-2.2.9zm5.7 7.8c3.6-3.6 7.8-6.4 10-6.4 1.4 0 1.4 2.1 1.4 4.3l-1.4 4.3c2.8-5 6.4-8.5 7.8-8.5s2.8.7 3.6 1.4c.7.7 0 2.1 0 2.8-.7 1.4-1.4 1.4-2.1 2.1-.7.7-1.4.7-2.1 0s-1.4-.7-2.1-.7-1.4 0-2.8 2.1-2.1 3.6-3.6 6.4c-1.4 5.7-2.1 10-2.1 12.1l-6.4 1.4c.7-3.6 1.4-6.4 2.1-10l2.1-10c.7-2.1.7-3.6 0-3.6s-2.8 1.4-4.3 2.8l-.1-.5zm46.2 2.8c0 5.7-2.1 11.4-6.4 14.9-2.8 2.1-6.4 4.3-10 4.3-6.4 0-8.5-5-8.5-9.2 0-7.8 4.3-13.5 8.5-15.6 2.8-1.4 5.7-2.1 7.8-2.1 5.8-.8 8.6 2.7 8.6 7.7zm-12-5.7c-2.1.7-5.7 5.7-5.7 14.2 0 4.3 1.4 7.8 4.3 7.8h1.4c2.1-.7 5.7-7.8 5.7-15.6 0-4.3-1.4-6.4-4.3-6.4 0-.7-.7-.7-1.4 0zm17 2.9c3.6-3.6 7.8-6.4 10-6.4 1.4 0 2.1 1.4 1.4 4.3l-2.8 13.5c-.7 2.8-.7 4.3.7 4.3s2.8-2.1 5-4.3c2.1-2.1 4.3-5.7 5.7-7.8.7-1.4 1.4-6.4 2.1-9.2l5.7-1.4h.7c-1.4 7.1-2.8 13.5-4.3 20.6 0 1.4-.7 2.1 0 2.1s2.8-1.4 4.3-2.8l.7 1.4c-3.6 2.8-8.5 5.7-9.2 5.7-2.1 0-2.1-2.1-1.4-5l1.4-5.7c-2.8 4.3-7.1 7.8-9.2 9.2-1.4.7-2.8 1.4-4.3 1.4-1.4 0-3.6-.7-2.1-7.8l2.8-12.1c.7-2.1.7-2.8 0-2.8s-2.8 1.4-4.3 2.8H699zm44.8-5c1.4-.7 3.6-.7 5-.7 6.4 0 9.2 2.8 9.2 7.8 0 3.6-1.4 8.5-5.7 12.8-2.8 3.6-7.1 5.7-11.4 7.1-.7 0-2.1 0-2.8-.7l-1.4 7.8c-.7 2.8-.7 3.6 1.4 3.6h2.8v1.4l-15.6.7V608c3.6-.7 4.3-1.4 5-3.6l6.4-30.6c-1.4 0-3.6.7-5 1.4l-.7-1.4c2.1-1.4 4.3-1.4 5.7-2.1l.7-2.1c1.4-1.4 3.6-2.8 5.7-3.6l.7.7v2.9zm-4.2 22c.7.7 1.4 1.4 3.6 1.4 4.3 0 9.2-7.8 9.2-15.6 0-5-2.8-6.4-5.7-6.4-1.4 0-2.1 0-2.8.7l-4.3 19.9z"></path></svg>